<?xml version="1.0" standalone="no"?>
<!DOCTYPE svg PUBLIC "-//W3C//DTD SVG 20010904//EN"
 "http://www.w3.org/TR/2001/REC-SVG-20010904/DTD/svg10.dtd">
<svg version="1.0" xmlns="http://www.w3.org/2000/svg"
 width="260.000000pt" height="260.000000pt" viewBox="0 0 260.000000 260.000000"
 preserveAspectRatio="xMidYMid meet">
<metadata>
Created by potrace 1.11, written by Peter Selinger 2001-2013
</metadata>
<g transform="translate(0.000000,260.000000) scale(0.100000,-0.100000)"
fill="#000000" stroke="none">
<path d="M0 1300 l0 -1300 1300 0 1300 0 0 1300 0 1300 -1300 0 -1300 0 0
-1300z m992 1183 c18 -14 57 -49 86 -77 42 -40 52 -46 52 -31 1 29 22 53 63
70 37 15 103 20 131 9 27 -10 76 -92 76 -126 0 -18 9 -41 19 -52 17 -18 19
-28 11 -61 -5 -21 -7 -42 -4 -47 3 -4 -7 -15 -21 -24 -14 -9 -25 -20 -25 -25
0 -5 38 -9 85 -9 78 0 96 4 200 45 96 38 131 47 227 56 175 16 507 22 485 9
-35 -22 -163 -52 -217 -51 -35 1 -94 -10 -160 -29 -58 -16 -118 -30 -133 -30
-15 0 -91 -27 -168 -59 -77 -33 -153 -63 -169 -66 -17 -4 -30 -9 -30 -11 0 -3
10 -24 23 -47 19 -36 22 -57 22 -152 -1 -133 -11 -169 -70 -260 -61 -92 -78
-110 -133 -134 -45 -19 -148 -110 -108 -95 17 6 18 3 11 -47 -13 -99 -45 -233
-86 -359 -40 -124 -40 -127 -49 -340 -5 -118 -10 -241 -12 -274 l-3 -58 63
-40 c34 -22 83 -48 108 -57 26 -9 46 -20 45 -26 0 -6 -60 -11 -150 -13 -182
-3 -180 -5 -163 103 10 64 9 88 -9 182 -22 119 -25 231 -8 314 6 30 14 166 18
302 5 202 9 249 21 257 8 5 12 11 10 14 -3 2 -73 0 -155 -5 -83 -6 -205 -9
-271 -7 -165 4 -164 3 -164 155 0 72 10 177 26 286 20 131 25 189 19 242 -4
39 -8 88 -9 110 -2 22 -7 62 -11 90 l-8 50 23 -16 c20 -13 26 -13 39 -2 9 8
31 24 50 36 19 12 54 47 78 77 91 114 145 169 204 209 72 48 96 50 141 14z"/>
<path d="M854 2342 c-116 -85 -206 -166 -239 -217 -20 -29 -42 -56 -50 -59
-25 -9 -17 -30 25 -71 49 -48 53 -81 11 -96 -16 -6 -32 -16 -34 -23 -3 -6 0
-121 6 -254 l10 -242 30 0 c16 0 85 23 154 50 68 28 144 53 169 57 25 3 44 11
44 18 0 42 87 101 164 111 39 6 46 11 55 37 21 58 13 140 -36 376 -11 54 -27
92 -60 143 -49 75 -168 208 -187 208 -6 0 -34 -17 -62 -38z"/>
</g>
</svg>
