<svg id="Слой_1" xmlns="http://www.w3.org/2000/svg" viewBox="0 0 238 24.2"><style>.st0{fill:#FFFFFF;}</style><path class="st0" d="M5.3 17.8H0v-.2c1 0 1.4-1.2 1.4-2.9V4c0-1.5-.3-2.9-1.4-2.9V.9h5.3c3.3 0 6.3 0 6.3 4.1 0 3.6-3.7 4.1-4.2 4.1 1.6 0 5.3.3 5.3 4.4 0 4.2-3.2 4.3-7.4 4.3zM4.4 1.3v7.8h1.2C7 9.1 8.7 8.6 8.7 5c0-3.6-2-3.7-3.3-3.7h-1zm1.2 8.1H4.4v8h1c2.2 0 4.3 0 4.3-4.1-.1-3.7-2.4-3.9-4.1-3.9zM15.2 16.2c0-1 .8-1.7 1.7-1.7.9 0 1.7.8 1.7 1.7 0 1-.8 1.7-1.7 1.7-.9 0-1.7-.7-1.7-1.7zM27.4.9v.4c-1.1 0-2 .3-2 2v11.8c0 1.6.7 2.4 1.7 2.4v.4h-6.3v-.4c1 0 1.6-.7 1.6-2.4V3.3c0-1.5-.6-2-1.6-2V.9h6.6zm10.7 16.9h-3.2c-2.5 0-3.1-.7-5.6-4.3-1.4-2-2.5-3.5-2.5-3.5L30 6.2c.7-.8 4.2-4.8.2-4.8V.9h7.3v.4c-1.7 0-3.2.3-8.4 7 4.2 5.6 5.8 7.8 5.8 7.8 1.1 1.5 2.8 1.4 3.3 1.4v.3zM39.7 16.2c0-1 .8-1.7 1.7-1.7.9 0 1.7.8 1.7 1.7 0 1-.8 1.7-1.7 1.7-.9 0-1.7-.7-1.7-1.7zM51.7 18c-4.3 0-6.1-1.4-6.1-1.4V12h.4c.4 2.2 1.6 5.7 5.8 5.7 3.1 0 3.7-3.8.9-5.8l-3.8-2.4c-2.9-1.8-4.6-4.1-2.7-6.8 0 0 1.2-1.8 4.8-1.8 3.8 0 5.8 1.2 5.8 1.2v4h-.4c-.3-1.8-1.5-4.8-5.4-4.8-2.6 0-4.1 3.3-.7 5.4L54 9c3.2 2.1 4.1 4.7 2.6 7 0 .1-1.1 2-4.9 2zM59.8 16.2c0-1 .8-1.7 1.7-1.7.9 0 1.7.8 1.7 1.7 0 1-.8 1.7-1.7 1.7-.9 0-1.7-.7-1.7-1.7zM77.7.9v.4c-1 0-1.9.5-1.9 2v11.8c0 1.6.9 2.4 1.9 2.4v.4H71v-.4c1 0 1.9-.7 1.9-2.4V3.3c0-1.5-.8-2-1.9-2V.9h6.7zM91 6.7V7c-.7 0-1.6.1-3.1 3.8l-3.7 9.9c-.6 1.5-1.2 2.1-1.7 2.4-.4.3-1.1.5-1.6.2-.7-.3-1.1-1.2-.7-1.9.3-.7 1.2-1.1 1.9-.7.4.2.6.5.7.9.1.3.6.1 1-.9l1-2.8c-2.2-4.9-4.5-9.8-4.5-9.8-.4-1-1.2-1.1-1.6-1.1v-.3H84V7c-1.4 0-.7 1.6-.7 1.6l2.8 5.9 1.4-3.8S89 7 86.3 7v-.3H91zM101.3 14.9c-.3 1.2-1.7 3.1-4.7 3.1s-5.2-2.7-5.2-5.7c0-3.5 2.3-5.8 5.4-5.8 3.1 0 4.9 1.8 4.9 5.5h-7.6c.1 2.8 1.5 4.1 3.2 4.3 1.4.2 3.2-.5 3.7-1.6l.3.2zm-2.1-3.2c0-3.3-1.3-4.8-2.5-4.8-1.4 0-2.6 2.2-2.6 4.8h5.1zM114.7 17.8h-4.5v-.4c.9-.3 1-1 1-2.2v-4.9c0-1.4-.8-2.4-2.2-2.4-1.1 0-2.2 1.1-2.3 2v5.3c0 1.3.1 1.9 1 2.2v.4h-4.5v-.4c.9-.3.9-1 .9-2.2v-6c0-.8-.2-1.1-1.2-1.5v-.4l3.7-.8V9c.5-1.4 2.3-2.5 3.8-2.5 1.9 0 3.2.8 3.2 3.7v5c0 1.3.1 2 1 2.2v.4zM126.3 8.5c-.2-.3-.3-.6-.2-.9 0-.2-.6-.1-1.1.5.6.6.9 1.4.9 2.3 0 1.9-1.7 3.6-4.6 3.6-.9 0-1.7-.1-2.3-.4-.9.2-2.2 2.5.5 2.5h3.1c1.7 0 4.5 0 4.1 3.4 0 0-.1 1.9-2.6 3.4-3.3 1.8-7.4 1.6-8.4-.3-.9-1.7.4-3.5 1.9-4.3-.7-.3-1.2-1-1.2-1.9 0 0-.1-2.1 2.2-2.9-1.2-.5-1.9-1.8-1.9-3.1 0-1.9 1.7-3.6 4.5-3.6 1.5 0 2.7.4 3.4 1.1.6-1 1.7-1.3 2.2-1.4.4-.1.9.1 1.2.4.4.5.4 1.3-.1 1.7-.4.5-1.2.4-1.6-.1zm-2.4 14.1c1.7-1.1 1.5-2.5 1.5-2.5s-.1-1.2-2-1.2h-3.3c-.3 0-1.2 0-2.1-.3-2.3 1.4-.5 3.4-.5 3.4 1.2 1.3 4.2 1.9 6.4.6zm-2.6-15.5c-1.2 0-2.1.6-2.1 3.3 0 2.7 1 3.3 2.1 3.3s2.1-.6 2.1-3.3c0-2.7-1.1-3.3-2.1-3.3zM140.4 16.4c-.2.7-1.1 1.7-2.5 1.7 0 0-2 0-2.2-2-.3 1.1-1.8 2-3.4 2 0 0-2.8 0-2.8-2.4 0-2.5 2-2.9 6.2-4v-1.4c0-2.5-1.3-3.8-3.1-2.9-.8.4-1 .9-.8.9.3 0 .6.2.8.5.4.6.3 1.3-.3 1.7-.6.4-1.3.3-1.7-.3-.3-.4-.3-.9-.1-1.3.2-.4.6-1.1 1.9-1.8 1.1-.6 2.3-.5 2.3-.5 2.9 0 3.6 2 3.6 4.8v3.8s0 1.6 1.1 1.6c0 0 .5 0 .7-.5l.3.1zm-8.3-1.4c0 .3.2 1.7 1.7 1.7 1 0 1.6-.7 1.8-1.3V12c-2.5.6-3.5 1.7-3.5 3zM149.5 7c.6.6.6 1.6 0 2.2s-1.6.6-2.2 0c-.3-.3-.4-.7-.4-1.1 0-.3-1.2.1-2.1 1.6v5.5c0 1.3.1 2 1 2.2v.4h-4.5v-.4c.9-.3 1-1 1-2.2v-6c0-.8-.2-1.2-1.2-1.5v-.4l3.8-.8v2.6c1.1-1.8 2.3-2.3 3-2.5.4-.1 1.2 0 1.6.4zM158.6 12V3.4c0-1.5-.7-2.1-1.8-2.1V.9h6.8v.4c-1 0-2.1.3-2.1 2.1v8.8c0 2.9 1.8 4.6 4.2 4.6 2.1 0 4.1-1.6 4.1-4.7V5.3c0-1.2 0-4-3-4V.9h6.7v.4c-3.4 0-3.3 2.9-3.3 4v6.8c0 4.7-3.3 5.9-5.9 5.9-3.1 0-5.7-2.1-5.7-6zM179 17.8h-4.5v-.4c.9-.3 1-1 1-2.2V2.6c0-.8-.2-1.2-1.2-1.5V.8L178 0v15.2c0 1.3.1 2 1 2.2v.4zm7.6 0h-2.8c-1.7 0-2-.4-3.6-2.8-.6-.8-1.6-2.2-1.6-2.2l2.3-2.4s3.5-3.4.3-3.3v-.4h5.6v.4c-.8 0-2.7.2-6.2 4.3 2.7 3.7 3.9 5 3.9 5 .7 1 1.7 1.1 2.1 1.1v.3zM195.7 7c.6.6.6 1.6 0 2.2-.6.6-1.6.6-2.2 0-.3-.3-.4-.7-.4-1.1 0-.3-1.2.1-2.1 1.6v5.5c0 1.3.1 2 1 2.2v.4h-4.5v-.4c.9-.3 1-1 1-2.2v-6c0-.8-.2-1.2-1.2-1.5v-.4l3.8-.8v2.6c1.1-1.8 2.3-2.3 3-2.5.4-.1 1.2 0 1.6.4zM207.8 16.4c-.2.7-1.1 1.7-2.5 1.7 0 0-2 0-2.2-2-.3 1.1-1.8 2-3.4 2 0 0-2.8 0-2.8-2.4 0-2.5 2-2.9 6.2-4v-1.4c0-2.5-1.3-3.8-3.1-2.9-.8.4-1 .9-.8.9.3 0 .6.2.8.5.4.6.3 1.3-.3 1.7-.6.4-1.3.3-1.7-.3-.3-.4-.3-.9-.1-1.3.2-.4.6-1.1 1.9-1.8 1.1-.6 2.3-.5 2.3-.5 2.9 0 3.6 2 3.6 4.8v3.8s0 1.6 1.1 1.6c0 0 .5 0 .7-.5l.3.1zm-8.3-1.4c0 .3.2 1.7 1.7 1.7 1 0 1.6-.7 1.8-1.3V12c-2.5.6-3.5 1.7-3.5 3zM213.5 17.8H209v-.4c.9-.3 1-1 1-2.2v-6c0-.8-.2-1.2-1.2-1.6v-.3l3.7-.8v8.7c0 1.3.1 2 1 2.2v.4zm-3.9-14.7c0-.8.6-1.4 1.4-1.4s1.5.6 1.5 1.4c0 .8-.7 1.4-1.5 1.4s-1.4-.6-1.4-1.4zM226.4 17.8h-4.5v-.4c.9-.3 1-1 1-2.2v-4.9c0-1.4-.8-2.4-2.2-2.4-1.1 0-2.2 1.1-2.3 2v5.3c0 1.3.1 1.9 1 2.2v.4h-4.5v-.4c.9-.3.9-1 .9-2.2v-6c0-.8-.2-1.1-1.2-1.5v-.4l3.7-.8V9c.5-1.4 2.3-2.5 3.8-2.5 1.9 0 3.2.8 3.2 3.7v5c0 1.3.1 2 1 2.2v.4zM237.6 14.9c-.3 1.2-1.7 3.1-4.7 3.1s-5.2-2.7-5.2-5.7c0-3.5 2.3-5.8 5.4-5.8 3.1 0 4.9 1.8 4.9 5.5h-7.6c.1 2.8 1.5 4.1 3.2 4.3 1.4.2 3.2-.5 3.7-1.6l.3.2zm-2.1-3.2c0-3.3-1.3-4.8-2.5-4.8-1.4 0-2.6 2.2-2.6 4.8h5.1z"/></svg>