<?xml version="1.0" encoding="UTF-8" standalone="no"?>
<!-- Created with Inkscape (http://www.inkscape.org/) -->

<svg
   xmlns:dc="http://purl.org/dc/elements/1.1/"
   xmlns:cc="http://creativecommons.org/ns#"
   xmlns:rdf="http://www.w3.org/1999/02/22-rdf-syntax-ns#"
   xmlns:svg="http://www.w3.org/2000/svg"
   xmlns="http://www.w3.org/2000/svg"
   xmlns:sodipodi="http://sodipodi.sourceforge.net/DTD/sodipodi-0.dtd"
   xmlns:inkscape="http://www.inkscape.org/namespaces/inkscape"
   width="77"
   height="77"
   viewBox="0 0 77 76.999999"
   id="svg2"
   version="1.1"
   inkscape:version="0.91 r13725"
   sodipodi:docname="list.svg"
   inkscape:export-filename="E:\bitBucket\bksiyengar\_tpl_site\dist\tmp\teachers\g3389.png"
   inkscape:export-xdpi="90"
   inkscape:export-ydpi="90">
  <defs
     id="defs4" />
  <sodipodi:namedview
     id="base"
     pagecolor="#ffffff"
     bordercolor="#666666"
     borderopacity="1.0"
     inkscape:pageopacity="0.0"
     inkscape:pageshadow="2"
     inkscape:zoom="3.959798"
     inkscape:cx="5.1490018"
     inkscape:cy="27.066876"
     inkscape:document-units="px"
     inkscape:current-layer="layer1"
     showgrid="false"
     units="px"
     fit-margin-top="0"
     fit-margin-left="0"
     fit-margin-right="0"
     fit-margin-bottom="0"
     inkscape:window-width="1680"
     inkscape:window-height="987"
     inkscape:window-x="-8"
     inkscape:window-y="-8"
     inkscape:window-maximized="1" />
  <metadata
     id="metadata7">
    <rdf:RDF>
      <cc:Work
         rdf:about="">
        <dc:format>image/svg+xml</dc:format>
        <dc:type
           rdf:resource="http://purl.org/dc/dcmitype/StillImage" />
        <dc:title></dc:title>
      </cc:Work>
    </rdf:RDF>
  </metadata>
  <g
     inkscape:label="Layer 1"
     inkscape:groupmode="layer"
     id="layer1"
     transform="translate(-202.04709,-677.67409)">
    <g
       id="g3508"
       transform="matrix(0.15039062,0,0,0.15039062,202.82834,677.67409)"
       style="fill:#ffffff">
      <path
         id="path3510"
         d="M 424,0 88,0 C 65.944,0 48,17.944 48,40 l 0,432 c 0,22.056 17.944,40 40,40 l 336,0 c 22.056,0 40,-17.944 40,-40 L 464,40 C 464,17.944 446.056,0 424,0 Z m 24,472 c 0,13.233 -10.766,24 -24,24 L 88,496 C 74.766,496 64,485.233 64,472 L 64,40 C 64,26.767 74.766,16 88,16 l 336,0 c 13.234,0 24,10.767 24,24 l 0,432 z"
         inkscape:connector-curvature="0"
         style="fill:#ffffff" />
      <path
         id="path3512"
         d="m 208,104 144,0 c 4.418,0 8,-3.582 8,-8 0,-4.418 -3.582,-8 -8,-8 l -144,0 c -4.418,0 -8,3.582 -8,8 0,4.418 3.582,8 8,8 z"
         inkscape:connector-curvature="0"
         style="fill:#ffffff" />
      <path
         id="path3514"
         d="m 408,120 -200,0 c -4.418,0 -8,3.582 -8,8 0,4.418 3.582,8 8,8 l 200,0 c 4.418,0 8,-3.582 8,-8 0,-4.418 -3.582,-8 -8,-8 z"
         inkscape:connector-curvature="0"
         style="fill:#ffffff" />
      <path
         id="path3516"
         d="m 208,168 176,0 c 4.418,0 8,-3.582 8,-8 0,-4.418 -3.582,-8 -8,-8 l -176,0 c -4.418,0 -8,3.582 -8,8 0,4.418 3.582,8 8,8 z"
         inkscape:connector-curvature="0"
         style="fill:#ffffff" />
      <path
         id="path3518"
         d="m 168,344 -64,0 c -4.418,0 -8,3.582 -8,8 l 0,64 c 0,4.418 3.582,8 8,8 l 64,0 c 4.418,0 8,-3.582 8,-8 l 0,-64 c 0,-4.418 -3.582,-8 -8,-8 z m -8,64 -48,0 0,-48 48,0 0,48 z"
         inkscape:connector-curvature="0"
         style="fill:#ffffff" />
      <path
         id="path3520"
         d="m 208,360 144,0 c 4.418,0 8,-3.582 8,-8 0,-4.418 -3.582,-8 -8,-8 l -144,0 c -4.418,0 -8,3.582 -8,8 0,4.418 3.582,8 8,8 z"
         inkscape:connector-curvature="0"
         style="fill:#ffffff" />
      <path
         id="path3522"
         d="m 408,376 -200,0 c -4.418,0 -8,3.582 -8,8 0,4.418 3.582,8 8,8 l 200,0 c 4.418,0 8,-3.582 8,-8 0,-4.418 -3.582,-8 -8,-8 z"
         inkscape:connector-curvature="0"
         style="fill:#ffffff" />
      <path
         id="path3524"
         d="m 384,408 -176,0 c -4.418,0 -8,3.582 -8,8 0,4.418 3.582,8 8,8 l 176,0 c 4.418,0 8,-3.582 8,-8 0,-4.418 -3.582,-8 -8,-8 z"
         inkscape:connector-curvature="0"
         style="fill:#ffffff" />
      <path
         id="path3526"
         d="m 168,216 -64,0 c -4.418,0 -8,3.582 -8,8 l 0,64 c 0,4.418 3.582,8 8,8 l 64,0 c 4.418,0 8,-3.582 8,-8 l 0,-64 c 0,-4.418 -3.582,-8 -8,-8 z m -8,64 -48,0 0,-48 48,0 0,48 z"
         inkscape:connector-curvature="0"
         style="fill:#ffffff" />
      <path
         id="path3528"
         d="m 208,232 144,0 c 4.418,0 8,-3.582 8,-8 0,-4.418 -3.582,-8 -8,-8 l -144,0 c -4.418,0 -8,3.582 -8,8 0,4.418 3.582,8 8,8 z"
         inkscape:connector-curvature="0"
         style="fill:#ffffff" />
      <path
         id="path3530"
         d="m 408,248 -200,0 c -4.418,0 -8,3.582 -8,8 0,4.418 3.582,8 8,8 l 200,0 c 4.418,0 8,-3.582 8,-8 0,-4.418 -3.582,-8 -8,-8 z"
         inkscape:connector-curvature="0"
         style="fill:#ffffff" />
      <path
         id="path3532"
         d="m 208,296 176,0 c 4.418,0 8,-3.582 8,-8 0,-4.418 -3.582,-8 -8,-8 l -176,0 c -4.418,0 -8,3.582 -8,8 0,4.418 3.582,8 8,8 z"
         inkscape:connector-curvature="0"
         style="fill:#ffffff" />
      <path
         id="path3534"
         d="M 178.343,74.343 164.686,88 128,88 c -4.418,0 -8,3.582 -8,8 0,4.418 3.582,8 8,8 l 20.686,0 L 128,124.686 101.657,98.343 c -3.124,-3.123 -8.189,-3.123 -11.313,0 -3.125,3.125 -3.125,8.189 0,11.314 L 96,115.314 96,160 c 0,4.418 3.582,8 8,8 l 64,0 c 4.418,0 8,-3.582 8,-8 l 0,-24.002 c 0,-4.418 -3.582,-8 -8,-8 -4.418,0 -8,3.582 -8,8 l 0,16.002 -48,0 0,-20.686 10.343,10.343 c 1.562,1.562 3.609,2.343 5.657,2.343 2.048,0 4.095,-0.781 5.657,-2.343 l 56,-56 c 3.125,-3.125 3.125,-8.189 0,-11.314 -3.124,-3.123 -8.19,-3.123 -11.314,0 z"
         inkscape:connector-curvature="0"
         style="fill:#ffffff" />
    </g>
  </g>
</svg>
