<?xml version="1.0" encoding="UTF-8" standalone="no"?>
<!-- Created with Inkscape (http://www.inkscape.org/) -->

<svg
   xmlns:dc="http://purl.org/dc/elements/1.1/"
   xmlns:cc="http://creativecommons.org/ns#"
   xmlns:rdf="http://www.w3.org/1999/02/22-rdf-syntax-ns#"
   xmlns:svg="http://www.w3.org/2000/svg"
   xmlns="http://www.w3.org/2000/svg"
   xmlns:sodipodi="http://sodipodi.sourceforge.net/DTD/sodipodi-0.dtd"
   xmlns:inkscape="http://www.inkscape.org/namespaces/inkscape"
   width="77"
   height="77"
   viewBox="0 0 77 76.999999"
   id="svg2"
   version="1.1"
   inkscape:version="0.91 r13725"
   sodipodi:docname="list-document-interface-symbol.svg"
   inkscape:export-filename="E:\bitBucket\bksiyengar\_tpl_site\dist\tmp\teachers\g3389.png"
   inkscape:export-xdpi="90"
   inkscape:export-ydpi="90">
  <defs
     id="defs4" />
  <sodipodi:namedview
     id="base"
     pagecolor="#ffffff"
     bordercolor="#666666"
     borderopacity="1.0"
     inkscape:pageopacity="0.0"
     inkscape:pageshadow="2"
     inkscape:zoom="1.979899"
     inkscape:cx="-45.284857"
     inkscape:cy="25.66206"
     inkscape:document-units="px"
     inkscape:current-layer="layer1"
     showgrid="false"
     units="px"
     fit-margin-top="0"
     fit-margin-left="0"
     fit-margin-right="0"
     fit-margin-bottom="0"
     inkscape:window-width="1680"
     inkscape:window-height="987"
     inkscape:window-x="-8"
     inkscape:window-y="-8"
     inkscape:window-maximized="1" />
  <metadata
     id="metadata7">
    <rdf:RDF>
      <cc:Work
         rdf:about="">
        <dc:format>image/svg+xml</dc:format>
        <dc:type
           rdf:resource="http://purl.org/dc/dcmitype/StillImage" />
        <dc:title></dc:title>
      </cc:Work>
    </rdf:RDF>
  </metadata>
  <g
     inkscape:label="Layer 1"
     inkscape:groupmode="layer"
     id="layer1"
     transform="translate(-183.39332,-679.49422)">
    <g
       id="g3416"
       transform="matrix(1.7089464,0,0,1.7089464,184.54269,679.49422)"
       style="fill:#ffffff">
      <g
         id="_x31_30_32_"
         style="fill:#ffffff">
        <g
           id="g3419"
           style="fill:#ffffff">
          <path
             id="path3421"
             d="m 20.326,16.588 c 6.417,0 5.835,0 12.253,0 1.611,0 1.611,-2.5 0,-2.5 -6.418,0 -5.836,0 -12.253,0 -1.611,0 -1.611,2.5 0,2.5 z"
             inkscape:connector-curvature="0"
             style="fill:#ffffff" />
          <path
             id="path3423"
             d="m 32.579,21.005 c -6.418,0 -5.836,0 -12.253,0 -1.611,0 -1.611,2.5 0,2.5 6.417,0 5.835,0 12.253,0 1.611,0 1.611,-2.5 0,-2.5 z"
             inkscape:connector-curvature="0"
             style="fill:#ffffff" />
          <path
             id="path3425"
             d="m 32.579,27.488 c -6.418,0 -5.836,0 -12.253,0 -1.611,0 -1.611,2.5 0,2.5 6.417,0 5.835,0 12.253,0 1.611,0 1.611,-2.5 0,-2.5 z"
             inkscape:connector-curvature="0"
             style="fill:#ffffff" />
          <path
             id="path3427"
             d="m 32.579,34.404 c -6.418,0 -5.836,0 -12.253,0 -1.611,0 -1.611,2.5 0,2.5 6.417,0 5.835,0 12.253,0 1.611,0 1.611,-2.5 0,-2.5 z"
             inkscape:connector-curvature="0"
             style="fill:#ffffff" />
          <path
             id="path3429"
             d="m 14.875,12.628 -0.355,0.513 c -0.434,0.624 -0.881,1.264 -1.256,1.938 -0.006,-0.006 -0.012,-0.013 -0.018,-0.02 l -0.23,-0.266 c -0.436,-0.498 -1.277,-0.333 -1.549,0.267 -0.158,0.348 -0.1,0.743 0.152,1.032 l 0.244,0.283 c 0.314,0.365 0.641,0.744 1.01,1.084 0.182,0.166 0.416,0.258 0.656,0.258 0.412,0 0.779,-0.269 0.914,-0.669 0.318,-0.952 0.975,-1.881 1.609,-2.78 0.146,-0.209 0.293,-0.414 0.432,-0.617 0.195,-0.286 0.219,-0.631 0.064,-0.924 -0.31,-0.589 -1.277,-0.678 -1.673,-0.099 z"
             inkscape:connector-curvature="0"
             style="fill:#ffffff" />
          <path
             id="path3431"
             d="m 14.275,19.439 -0.355,0.514 c -0.436,0.623 -0.881,1.264 -1.258,1.938 -0.006,-0.007 -0.012,-0.014 -0.016,-0.02 l -0.232,-0.267 c -0.434,-0.497 -1.275,-0.331 -1.547,0.267 -0.158,0.348 -0.1,0.744 0.152,1.033 l 0.244,0.282 c 0.314,0.366 0.639,0.745 1.01,1.084 0.182,0.168 0.414,0.26 0.654,0.26 0.414,0 0.781,-0.271 0.916,-0.67 0.318,-0.952 0.973,-1.881 1.607,-2.78 0.148,-0.209 0.293,-0.415 0.432,-0.617 0.195,-0.287 0.221,-0.632 0.066,-0.924 -0.31,-0.589 -1.278,-0.679 -1.673,-0.1 z"
             inkscape:connector-curvature="0"
             style="fill:#ffffff" />
          <path
             id="path3433"
             d="m 14.275,26.41 -0.355,0.514 c -0.436,0.624 -0.881,1.264 -1.258,1.938 -0.006,-0.006 -0.01,-0.013 -0.016,-0.02 l -0.232,-0.266 c -0.434,-0.498 -1.275,-0.332 -1.547,0.267 -0.158,0.349 -0.1,0.743 0.152,1.032 l 0.244,0.283 c 0.314,0.365 0.639,0.744 1.01,1.084 0.182,0.166 0.414,0.258 0.654,0.258 0.414,0 0.781,-0.27 0.916,-0.67 0.318,-0.951 0.973,-1.881 1.607,-2.779 0.148,-0.209 0.293,-0.414 0.432,-0.617 0.195,-0.285 0.221,-0.631 0.066,-0.924 -0.31,-0.588 -1.278,-0.678 -1.673,-0.1 z"
             inkscape:connector-curvature="0"
             style="fill:#ffffff" />
          <path
             id="path3435"
             d="m 14.275,33.527 -0.355,0.514 c -0.436,0.623 -0.881,1.264 -1.258,1.938 -0.006,-0.007 -0.012,-0.014 -0.016,-0.02 l -0.232,-0.268 c -0.434,-0.498 -1.275,-0.332 -1.547,0.268 -0.158,0.348 -0.1,0.744 0.152,1.033 l 0.244,0.281 c 0.314,0.366 0.639,0.746 1.01,1.084 0.182,0.168 0.414,0.26 0.654,0.26 0.414,0 0.781,-0.271 0.916,-0.67 0.318,-0.951 0.973,-1.881 1.607,-2.779 0.148,-0.209 0.293,-0.415 0.432,-0.617 0.195,-0.287 0.221,-0.632 0.066,-0.924 -0.31,-0.588 -1.278,-0.68 -1.673,-0.1 z"
             inkscape:connector-curvature="0"
             style="fill:#ffffff" />
          <path
             id="path3437"
             d="m 33.431,0 -28.252,0 0,45.057 34.699,0 0,-38.806 L 33.431,0 Z m 3.447,42.056 -28.699,0 0,-39.056 23.707,0 0,4.76 4.992,0 0,34.296 0,0 z"
             inkscape:connector-curvature="0"
             style="fill:#ffffff" />
        </g>
      </g>
    </g>
  </g>
</svg>
