<?xml version="1.0" encoding="UTF-8" standalone="no"?>
<!-- Created with Inkscape (http://www.inkscape.org/) -->

<svg
   xmlns:dc="http://purl.org/dc/elements/1.1/"
   xmlns:cc="http://creativecommons.org/ns#"
   xmlns:rdf="http://www.w3.org/1999/02/22-rdf-syntax-ns#"
   xmlns:svg="http://www.w3.org/2000/svg"
   xmlns="http://www.w3.org/2000/svg"
   xmlns:sodipodi="http://sodipodi.sourceforge.net/DTD/sodipodi-0.dtd"
   xmlns:inkscape="http://www.inkscape.org/namespaces/inkscape"
   width="77"
   height="77"
   viewBox="0 0 77 76.999999"
   id="svg2"
   version="1.1"
   inkscape:version="0.91 r13725"
   sodipodi:docname="quality.svg"
   inkscape:export-filename="E:\bitBucket\bksiyengar\_tpl_site\dist\tmp\teachers\g3389.png"
   inkscape:export-xdpi="90"
   inkscape:export-ydpi="90">
  <defs
     id="defs4" />
  <sodipodi:namedview
     id="base"
     pagecolor="#ffffff"
     bordercolor="#666666"
     borderopacity="1.0"
     inkscape:pageopacity="0.0"
     inkscape:pageshadow="2"
     inkscape:zoom="1.979899"
     inkscape:cx="-55.260904"
     inkscape:cy="26.440982"
     inkscape:document-units="px"
     inkscape:current-layer="layer1"
     showgrid="false"
     units="px"
     fit-margin-top="0"
     fit-margin-left="0"
     fit-margin-right="0"
     fit-margin-bottom="0"
     inkscape:window-width="1680"
     inkscape:window-height="987"
     inkscape:window-x="-8"
     inkscape:window-y="-8"
     inkscape:window-maximized="1" />
  <metadata
     id="metadata7">
    <rdf:RDF>
      <cc:Work
         rdf:about="">
        <dc:format>image/svg+xml</dc:format>
        <dc:type
           rdf:resource="http://purl.org/dc/dcmitype/StillImage" />
        <dc:title></dc:title>
      </cc:Work>
    </rdf:RDF>
  </metadata>
  <g
     inkscape:label="Layer 1"
     inkscape:groupmode="layer"
     id="layer1"
     transform="translate(-193.36937,-680.27314)">
    <g
       id="g3488"
       transform="matrix(0.3182704,0,0,0.3182704,193.1305,680.27303)"
       style="fill:#ffffff">
      <path
         id="path3490"
         d="m 213.937,85.577 -18.398,-19.016 3.706,-26.192 c 0.567,-4.006 -2.145,-7.74 -6.131,-8.438 L 167.056,27.363 154.652,3.986 c -1.896,-3.573 -6.287,-4.999 -9.919,-3.222 L 120.969,12.38 97.199,0.764 C 93.564,-1.013 89.177,0.414 87.28,3.988 L 74.881,27.363 48.82,31.931 c -3.985,0.698 -6.698,4.432 -6.131,8.438 l 3.705,26.192 -18.398,19.016 c -2.813,2.908 -2.813,7.522 0.001,10.43 l 18.397,19.014 -3.705,26.206 c -0.566,4.005 2.146,7.739 6.131,8.437 l 20.857,3.656 0,81.113 c 0,2.599 1.346,5.013 3.557,6.379 1.204,0.745 2.572,1.121 3.943,1.121 1.146,0 2.295,-0.262 3.354,-0.792 l 40.439,-20.212 40.433,20.212 c 2.324,1.162 5.086,1.038 7.297,-0.329 2.211,-1.367 3.557,-3.781 3.557,-6.38 l 0,-81.111 20.858,-3.658 c 3.985,-0.699 6.697,-4.432 6.131,-8.438 l -3.706,-26.206 18.397,-19.013 c 2.812,-2.906 2.812,-7.521 0,-10.429 z m -89.614,120.258 c -2.11,-1.055 -4.595,-1.056 -6.707,0 l -32.939,16.464 0,-49.605 2.604,4.909 c 1.896,3.575 6.288,5 9.92,3.222 l 23.769,-11.624 23.762,11.624 c 1.06,0.518 2.184,0.764 3.291,0.764 2.69,0 5.286,-1.454 6.63,-3.985 l 2.604,-4.905 0,49.6 -32.934,-16.464 z m 57.886,-98.61 c -1.609,1.663 -2.36,3.975 -2.036,6.266 l 3.203,22.651 -22.521,3.949 c -2.278,0.399 -4.245,1.828 -5.33,3.871 l -10.721,20.2 -20.539,-10.047 c -1.04,-0.508 -2.168,-0.763 -3.296,-0.763 -1.128,0 -2.256,0.254 -3.295,0.763 L 97.13,164.162 86.413,143.963 c -1.084,-2.044 -3.051,-3.473 -5.33,-3.872 l -22.526,-3.949 3.202,-22.652 c 0.324,-2.29 -0.427,-4.603 -2.036,-6.265 L 43.822,90.791 59.724,74.355 c 1.608,-1.663 2.359,-3.975 2.035,-6.265 L 58.557,45.453 81.083,41.504 c 2.279,-0.399 4.246,-1.829 5.331,-3.873 l 10.717,-20.205 20.545,10.04 c 2.078,1.016 4.509,1.016 6.587,0 l 20.539,-10.04 10.723,20.206 c 1.084,2.043 3.051,3.472 5.33,3.872 l 22.521,3.948 -3.203,22.637 c -0.324,2.291 0.427,4.603 2.035,6.266 l 15.902,16.436 -15.901,16.434 z"
         inkscape:connector-curvature="0"
         style="fill:#ffffff" />
      <path
         id="path3492"
         d="m 120.969,39.507 c -28.283,0 -51.293,23.006 -51.293,51.285 0,28.285 23.01,51.296 51.293,51.296 28.279,0 51.286,-23.011 51.286,-51.296 0,-28.279 -23.007,-51.285 -51.286,-51.285 z m 0,87.581 c -20.012,0 -36.293,-16.282 -36.293,-36.296 0,-20.008 16.281,-36.285 36.293,-36.285 20.008,0 36.286,16.277 36.286,36.285 0,20.014 -16.278,36.296 -36.286,36.296 z"
         inkscape:connector-curvature="0"
         style="fill:#ffffff" />
      <path
         id="path3494"
         d="m 136.258,71.765 -22.155,22.15 -8.431,-8.421 c -2.93,-2.928 -7.679,-2.925 -10.607,0.006 -2.927,2.931 -2.924,7.679 0.007,10.606 l 13.733,13.718 c 1.464,1.463 3.382,2.194 5.3,2.194 1.919,0 3.839,-0.732 5.303,-2.196 l 27.455,-27.449 c 2.93,-2.928 2.93,-7.677 0.001,-10.607 -2.928,-2.929 -7.677,-2.93 -10.606,-0.001 z"
         inkscape:connector-curvature="0"
         style="fill:#ffffff" />
    </g>
  </g>
</svg>
