<?xml version="1.0" encoding="UTF-8" standalone="no"?>
<!-- Created with Inkscape (http://www.inkscape.org/) -->

<svg
   xmlns:dc="http://purl.org/dc/elements/1.1/"
   xmlns:cc="http://creativecommons.org/ns#"
   xmlns:rdf="http://www.w3.org/1999/02/22-rdf-syntax-ns#"
   xmlns:svg="http://www.w3.org/2000/svg"
   xmlns="http://www.w3.org/2000/svg"
   xmlns:sodipodi="http://sodipodi.sourceforge.net/DTD/sodipodi-0.dtd"
   xmlns:inkscape="http://www.inkscape.org/namespaces/inkscape"
   width="88"
   height="88"
   viewBox="0 0 88.000001 87.999999"
   id="svg2"
   version="1.1"
   inkscape:version="0.91 r13725"
   sodipodi:docname="yoga-pose-with-lotus-background.svg">
  <defs
     id="defs4" />
  <sodipodi:namedview
     id="base"
     pagecolor="#ffffff"
     bordercolor="#666666"
     borderopacity="1.0"
     inkscape:pageopacity="0.0"
     inkscape:pageshadow="2"
     inkscape:zoom="1.979899"
     inkscape:cx="-25.258705"
     inkscape:cy="28.387372"
     inkscape:document-units="px"
     inkscape:current-layer="layer1"
     showgrid="false"
     units="px"
     fit-margin-top="0"
     fit-margin-left="0"
     fit-margin-right="0"
     fit-margin-bottom="0"
     inkscape:window-width="1680"
     inkscape:window-height="987"
     inkscape:window-x="-8"
     inkscape:window-y="-8"
     inkscape:window-maximized="1" />
  <metadata
     id="metadata7">
    <rdf:RDF>
      <cc:Work
         rdf:about="">
        <dc:format>image/svg+xml</dc:format>
        <dc:type
           rdf:resource="http://purl.org/dc/dcmitype/StillImage" />
        <dc:title></dc:title>
      </cc:Work>
    </rdf:RDF>
  </metadata>
  <g
     inkscape:label="Layer 1"
     inkscape:groupmode="layer"
     id="layer1"
     transform="translate(-163.36717,-671.21953)">
    <g
       id="g3389"
       transform="matrix(0.24745654,0,0,0.24745654,162.33821,671.21953)"
       style="fill:#ffffff">
      <g
         id="g3337"
         style="fill:#ffffff">
        <path
           id="path3339"
           d="m 138.028,296.547 c 1.036,-2.684 1.894,-6.324 1.894,-11.063 0,-19.885 -4.738,-37.518 -6.775,-44.176 l 0,0 c -0.064,-0.215 -0.174,-0.602 -0.311,-1.111 l -0.172,-0.635 c -0.22,-0.787 -1.625,-5.148 -2.814,-8.779 l 0,-0.002 c -1.51,-4.33 -3.07,-8.809 -4.142,-13.65 l -0.041,-0.182 c -1.505,-6.539 -6.444,-30.416 -6.791,-63.154 l -0.001,-0.053 0,-0.054 c 0,-4.109 1.534,-7.485 3.279,-10.077 0.817,-12.611 2.729,-25.902 5.721,-39.822 C 105.266,76.525 85.176,58.687 85.176,58.687 c 0,0 -13.802,93.348 11.665,163.318 12.763,35.063 27.113,59.723 41.187,74.542 z"
           inkscape:connector-curvature="0"
           style="fill:#ffffff" />
        <path
           id="path3341"
           d="m 177.809,0 c 0,0 -34.344,63.494 -42.955,129.234 0.818,-0.896 1.669,-1.832 2.553,-2.811 3.234,-3.578 6.659,-6.686 9.971,-9.691 l 0.071,-0.064 c 3.579,-3.242 7.28,-6.596 10.097,-10.096 3.537,-4.403 7.023,-12.635 6.49,-18.233 -0.404,-4.143 0.805,-8.001 3.403,-10.862 2.392,-2.635 5.807,-4.146 9.368,-4.146 l 2.004,0 c 3.561,0 6.973,1.509 9.363,4.14 2.596,2.854 3.808,6.707 3.412,10.848 -0.537,5.621 2.949,13.85 6.487,18.252 2.812,3.496 6.515,6.854 10.114,10.114 3.33,3.021 6.773,6.144 10.025,9.742 0.883,0.977 1.731,1.911 2.551,2.808 C 212.152,63.494 177.809,0 177.809,0 Z"
           inkscape:connector-curvature="0"
           style="fill:#ffffff" />
        <path
           id="path3343"
           d="m 126.455,303.732 0.287,-0.041 c 0.893,-0.125 1.629,-0.23 2.279,-0.328 -1.503,-1.617 -3.02,-3.34 -4.553,-5.197 C 110.383,281.094 97.535,256.764 86.282,225.848 78.745,205.139 73.839,180.991 71.604,153.746 46.145,121.926 28.76,96.453 28.76,96.453 c 0,0 -5.955,110.414 30.903,175.113 10.525,18.475 20.991,33.531 31.075,45.336 5.5,-5.65 14.751,-10.672 30.269,-12.363 2.259,-0.348 4.007,-0.598 5.448,-0.807 z"
           inkscape:connector-curvature="0"
           style="fill:#ffffff" />
        <path
           id="path3345"
           d="m 233.313,314.457 c -2.457,-0.379 -4.311,-0.645 -5.82,-0.861 -4.638,-0.656 -5.883,-0.83 -11.305,-2.522 -2.135,-0.666 -10.492,-9.094 -10.492,-25.59 0,-21.252 5.047,-40.021 7.213,-47.102 0.059,-0.186 0.199,-0.723 0.396,-1.445 0.359,-1.328 2.989,-9.357 2.989,-9.357 1.426,-4.086 2.901,-8.311 3.86,-12.652 l 0.051,-0.223 c 1.449,-6.283 6.201,-29.258 6.537,-61.033 0,-3.206 -2.666,-5.996 -4.256,-7.662 -0.293,-0.306 -0.551,-0.574 -0.744,-0.799 -1.532,-1.783 -3.551,-3.983 -5.887,-6.529 -1.54,-1.68 -3.237,-3.529 -5.064,-5.553 -2.922,-3.232 -6.182,-6.189 -9.336,-9.05 -3.877,-3.513 -7.883,-7.147 -11.176,-11.244 -4.922,-6.122 -9.473,-16.833 -8.648,-25.468 0.125,-1.301 -0.181,-2.428 -0.855,-3.17 -0.516,-0.566 -1.231,-0.866 -1.965,-0.866 -0.336,0 -0.676,0.063 -1.001,0.191 -0.326,-0.128 -0.667,-0.191 -1.003,-0.191 -0.733,0 -1.449,0.3 -1.964,0.866 -0.674,0.742 -0.982,1.869 -0.855,3.17 0.822,8.635 -3.729,19.346 -8.648,25.468 -3.295,4.097 -7.3,7.731 -11.178,11.244 -3.152,2.86 -6.415,5.817 -9.337,9.05 -1.826,2.023 -3.523,3.873 -5.063,5.553 -2.336,2.547 -4.353,4.746 -5.887,6.529 -0.193,0.225 -0.449,0.493 -0.742,0.799 -1.59,1.666 -4.258,4.456 -4.258,7.679 0.338,31.759 5.09,54.733 6.537,61.017 l 0.051,0.223 c 0.96,4.342 2.436,8.566 3.86,12.652 0,0 2.63,8.029 2.989,9.357 0.197,0.723 0.338,1.26 0.396,1.445 2.166,7.08 7.213,25.85 7.213,47.102 0,16.496 -8.357,24.924 -10.492,25.59 -5.42,1.691 -6.665,1.865 -11.306,2.522 -1.509,0.217 -3.361,0.482 -5.818,0.861 -26.622,2.83 -29.497,16.047 -29.497,21.602 0,1.486 0.77,6.322 4.285,10.777 3.156,4.008 9.447,8.781 21.484,8.781 1.807,0 3.717,-0.105 5.68,-0.318 8.012,-0.863 16.086,-2.154 23.895,-3.402 2.836,-0.457 5.666,-0.91 8.502,-1.346 3.777,-0.58 10.588,-0.963 20.237,-1.139 0.451,-0.006 0.765,-0.016 0.918,-0.022 0.153,0.006 0.467,0.016 0.917,0.022 9.65,0.176 16.459,0.559 20.236,1.139 2.836,0.435 5.668,0.889 8.502,1.346 7.809,1.248 15.885,2.539 23.895,3.402 1.963,0.213 3.873,0.318 5.68,0.318 12.04,0 18.33,-4.773 21.486,-8.781 3.516,-4.453 4.283,-9.291 4.283,-10.777 0.001,-5.556 -2.872,-18.773 -29.495,-21.603 z M 191.889,206.256 c -0.396,0 -0.773,-0.088 -1.154,-0.268 -1.238,-0.494 -2.827,-2.861 -2.975,-3.777 6.168,-4.293 10.336,-12.445 10.336,-21.805 0,-13.816 -1.458,-25.018 -20.287,-25.018 -18.829,0 -20.287,11.201 -20.287,25.018 0,9.359 4.168,17.512 10.336,21.803 -0.146,0.916 -1.771,3.17 -2.975,3.779 -0.379,0.18 -0.756,0.268 -1.154,0.268 -3.963,0 -8.934,-8.684 -10.237,-12.137 -2.225,-5.871 -4.997,-15.963 -5.595,-30.688 l -0.023,-0.564 c -0.15,-3.104 4.521,-11.035 5.139,-12.393 0.853,-1.868 11.889,-18.693 15.166,-22.678 1.16,-1.41 7.041,-9.215 9.632,-12.661 2.591,3.446 8.47,11.251 9.628,12.661 3.281,3.984 14.314,20.81 15.168,22.678 0.618,1.357 5.289,9.289 5.141,12.393 l -0.025,0.564 c -0.596,14.725 -3.371,24.816 -5.596,30.688 -1.305,3.453 -6.273,12.137 -10.238,12.137 z"
           inkscape:connector-curvature="0"
           style="fill:#ffffff" />
        <path
           id="path3347"
           d="m 326.855,96.453 c 0,0 -17.385,25.473 -42.844,57.293 -2.234,27.244 -7.141,51.393 -14.678,72.102 -11.253,30.918 -24.101,55.248 -38.186,72.32 -1.532,1.855 -3.049,3.578 -4.551,5.195 0.66,0.1 1.408,0.205 2.316,0.334 l 0.244,0.035 c 1.442,0.207 3.191,0.459 5.449,0.807 15.519,1.689 24.77,6.711 30.27,12.363 10.084,-11.805 20.55,-26.861 31.075,-45.336 36.861,-64.699 30.905,-175.113 30.905,-175.113 z"
           inkscape:connector-curvature="0"
           style="fill:#ffffff" />
        <path
           id="path3349"
           d="m 177.809,131.708 c -0.936,1.22 -1.573,2.035 -1.907,2.44 -1.544,1.877 -5.373,7.502 -8.648,12.469 3.154,-0.818 6.676,-1.229 10.556,-1.229 3.88,0 7.401,0.41 10.556,1.229 -3.276,-4.969 -7.107,-10.594 -8.65,-12.469 -0.175,-0.21 -0.526,-0.637 -1.907,-2.44 z"
           inkscape:connector-curvature="0"
           style="fill:#ffffff" />
        <path
           id="path3351"
           d="m 236.742,153.672 0,0.053 0,0.054 c -0.348,32.786 -5.287,56.644 -6.783,63.13 l -0.04,0.178 c -1.077,4.877 -2.635,9.352 -4.152,13.701 -1.189,3.627 -2.592,7.984 -2.814,8.779 l -0.16,0.594 c -0.158,0.582 -0.277,1.004 -0.322,1.148 -2.037,6.658 -6.775,24.289 -6.775,44.176 0,4.738 0.857,8.381 1.894,11.064 14.074,-14.818 28.425,-39.478 41.188,-74.543 25.467,-69.971 11.665,-163.318 11.665,-163.318 0,0 -20.09,17.838 -42.699,45.102 2.992,13.918 4.902,27.207 5.721,39.818 1.742,2.587 3.277,5.96 3.277,10.064 z"
           inkscape:connector-curvature="0"
           style="fill:#ffffff" />
      </g>
      <g
         id="g3353"
         style="fill:#ffffff" />
      <g
         id="g3355"
         style="fill:#ffffff" />
      <g
         id="g3357"
         style="fill:#ffffff" />
      <g
         id="g3359"
         style="fill:#ffffff" />
      <g
         id="g3361"
         style="fill:#ffffff" />
      <g
         id="g3363"
         style="fill:#ffffff" />
      <g
         id="g3365"
         style="fill:#ffffff" />
      <g
         id="g3367"
         style="fill:#ffffff" />
      <g
         id="g3369"
         style="fill:#ffffff" />
      <g
         id="g3371"
         style="fill:#ffffff" />
      <g
         id="g3373"
         style="fill:#ffffff" />
      <g
         id="g3375"
         style="fill:#ffffff" />
      <g
         id="g3377"
         style="fill:#ffffff" />
      <g
         id="g3379"
         style="fill:#ffffff" />
      <g
         id="g3381"
         style="fill:#ffffff" />
    </g>
  </g>
</svg>
